<svg xmlns="http://www.w3.org/2000/svg" xmlns:xlink="http://www.w3.org/1999/xlink" viewBox="0,0,256,256" width="48px" height="48px" fill-rule="nonzero"><g fill="#59118a" fill-rule="nonzero" stroke="none" stroke-width="1" stroke-linecap="butt" stroke-linejoin="miter" stroke-miterlimit="10" stroke-dasharray="" stroke-dashoffset="0" font-family="none" font-weight="none" font-size="none" text-anchor="none" style="mix-blend-mode: normal"><g transform="scale(5.33333,5.33333)"><path d="M5.43555,10.95703c-2.24145,0 -3.94823,2.20405 -3.33008,4.37109c0.75214,2.63812 1.67394,5.25002 2.80664,7.72852c0.34464,0.75346 1.23482,1.08487 1.98828,0.74023c0.75346,-0.34464 1.08487,-1.23482 0.74023,-1.98828c-1.0573,-2.3135 -1.93253,-4.78485 -2.65039,-7.30273c-0.08585,-0.30096 0.09876,-0.54883 0.44531,-0.54883l3.44336,0.00977c0.21165,0.0005 0.36731,0.11471 0.42969,0.30469c0.98629,2.99924 3.57766,8.71377 6.86328,11.91406c0.85321,0.83123 2.10548,0.99973 3.07617,0.60547c0.97069,-0.39426 1.76172,-1.41601 1.76172,-2.61523c0,-0.00195 0,-0.00391 0,-0.00586l-0.02539,-6.73047c0,-0.98078 -0.32107,-1.93461 -0.91016,-2.7168l-0.00195,-0.00391l-0.53711,-0.7168l5.0293,0.00781c0.26257,0.00051 0.43555,0.17161 0.43555,0.42969v7.60352c0,2.43475 3.06637,3.83367 4.91016,2.24219c0.00065,0 0.0013,0 0.00195,0c1.69007,-1.45988 4.68076,-4.06542 7.60352,-10.05469c0.06778,-0.13872 0.0088,-0.23242 0.80273,-0.23242h3.47852c0.2025,0 0.26183,0.09645 0.18555,0.30273c-0.1735,0.46873 -0.40044,1.01294 -0.68164,1.60742c-0.25156,0.48738 -0.2171,1.07319 0.08988,1.52771c0.30698,0.45451 0.83754,0.70527 1.3836,0.65392c0.54606,-0.05135 1.02058,-0.39661 1.23745,-0.90038c0.3148,-0.66552 0.57666,-1.28439 0.78516,-1.84766c0.75572,-2.04371 -0.8025,-4.34375 -3,-4.34375h-3.47852c-1.51206,0 -2.92183,0.73674 -3.49805,1.91601c-2.70728,5.54763 -5.12035,7.58519 -6.82031,9.05274v-7.52734c0,-1.87793 -1.55821,-3.42618 -3.42969,-3.42969l-6.0918,-0.00977c-1.93989,-0.0024 -3.14276,2.39349 -1.98047,3.94727l1.17383,1.57031c0.00129,0.00261 0.0026,0.00521 0.00391,0.00781c0.20152,0.26649 0.30859,0.58581 0.30859,0.91406c0,0.00195 0,0.00391 0,0.00586l0.02344,6.27344c-2.4229,-2.55531 -5.05531,-7.96819 -5.84961,-10.38281v-0.00195c-0.46389,-1.41049 -1.79845,-2.36286 -3.27148,-2.36719h-0.00195l-3.44531,-0.00977c-0.0013,0 -0.0026,0 -0.00391,0zM39.73438,20.01563c-0.49443,0.00042 -0.9569,0.24444 -1.23633,0.65234c-0.80511,1.14057 -1.72767,2.29896 -2.75586,3.40625c-0.99206,1.06888 -0.95164,2.83494 0.16992,3.82813c1.75814,1.55509 5.59531,5.1232 7.04102,7.70898c0.13229,0.23651 0.03284,0.40059 -0.24219,0.40039h-4.875c-0.16775,0 -0.30566,-0.08187 -0.37891,-0.20898c-0.64968,-1.12945 -1.84111,-2.94482 -3.34766,-4.57031c-1.50655,-1.6255 -3.30001,-3.22461 -5.63867,-3.22461c-0.06626,0 -0.12052,0.00089 -0.16211,0.00195c-0.00195,0 -0.00391,0 -0.00586,0c-1.86132,0.05246 -3.28516,1.63202 -3.28516,3.4375v4.04688c0,0.311 -0.23981,0.53384 -0.51562,0.50586c-6.0845,-0.61846 -10.48317,-3.95121 -13.83008,-8.78711c-0.30069,-0.4512 -0.82145,-0.70503 -1.3621,-0.66391c-0.54065,0.04112 -1.01704,0.37078 -1.24603,0.86226c-0.229,0.49148 -0.17496,1.06828 0.14134,1.50868c3.69309,5.3361 8.95464,9.34892 15.99414,10.06445c2.05018,0.20802 3.81836,-1.46324 3.81836,-3.49023v-4.04687c0,-0.25252 0.17246,-0.43196 0.36914,-0.4375c0.03642,-0.00087 0.06553,-0.00195 0.08398,-0.00195c0.70734,0 2.1608,0.88617 3.4375,2.26367c1.2767,1.3775 2.4059,3.08279 2.94922,4.02734c0,0.00065 0,0.0013 0,0.00195c0.61476,1.06689 1.76026,1.71094 2.97852,1.71094h4.87305c2.42697,0.0018 4.05099,-2.7398 2.86328,-4.86328c-1.86269,-3.33161 -5.57494,-6.62426 -7.4375,-8.27148c1.04201,-1.14375 1.99571,-2.31863 2.81445,-3.47852c0.33223,-0.45656 0.37995,-1.06101 0.12348,-1.56405c-0.25647,-0.50304 -0.77368,-0.81946 -1.33833,-0.81877z"></path></g></g></svg>